<svg width="87" height="49" viewBox="0 0 87 49" fill="none" xmlns="http://www.w3.org/2000/svg">
<path d="M0.28125 47.9375V45.1406H0.796875C0.973958 44.9792 1.14063 44.7513 1.29688 44.457C1.45573 44.1602 1.58984 43.7643 1.69922 43.2695C1.8112 42.7721 1.88542 42.1406 1.92188 41.375L2.09375 38H6.84375V45.1406H7.76563V47.9219H6.84375V46H1.20312V47.9375H0.28125ZM1.95313 45.1406H5.92188V38.8594H2.96875L2.84375 41.375C2.8125 41.9583 2.75781 42.487 2.67969 42.9609C2.60156 43.4323 2.5013 43.8503 2.37891 44.2148C2.25651 44.5768 2.11458 44.8854 1.95313 45.1406ZM11.322 46.125C10.7803 46.125 10.3051 45.9961 9.89621 45.7383C9.48996 45.4805 9.17225 45.1198 8.94309 44.6562C8.71652 44.1927 8.60324 43.651 8.60324 43.0312C8.60324 42.4062 8.71652 41.8607 8.94309 41.3945C9.17225 40.9284 9.48996 40.5664 9.89621 40.3086C10.3051 40.0508 10.7803 39.9219 11.322 39.9219C11.8637 39.9219 12.3376 40.0508 12.7439 40.3086C13.1527 40.5664 13.4704 40.9284 13.697 41.3945C13.9262 41.8607 14.0407 42.4062 14.0407 43.0312C14.0407 43.651 13.9262 44.1927 13.697 44.6562C13.4704 45.1198 13.1527 45.4805 12.7439 45.7383C12.3376 45.9961 11.8637 46.125 11.322 46.125ZM11.322 45.2969C11.7335 45.2969 12.072 45.1914 12.3376 44.9805C12.6032 44.7695 12.7999 44.4922 12.9275 44.1484C13.0551 43.8047 13.1189 43.4323 13.1189 43.0312C13.1189 42.6302 13.0551 42.2565 12.9275 41.9102C12.7999 41.5638 12.6032 41.2839 12.3376 41.0703C12.072 40.8568 11.7335 40.75 11.322 40.75C10.9105 40.75 10.572 40.8568 10.3064 41.0703C10.0407 41.2839 9.84413 41.5638 9.71652 41.9102C9.58892 42.2565 9.52512 42.6302 9.52512 43.0312C9.52512 43.4323 9.58892 43.8047 9.71652 44.1484C9.84413 44.4922 10.0407 44.7695 10.3064 44.9805C10.572 45.1914 10.9105 45.2969 11.322 45.2969ZM19.6811 37.75L20.1498 38.3125C19.9676 38.4896 19.7566 38.6133 19.517 38.6836C19.2774 38.7539 19.0066 38.7969 18.7045 38.8125C18.4024 38.8281 18.0665 38.8437 17.6967 38.8594C17.2801 38.875 16.935 38.9766 16.6616 39.1641C16.3881 39.3516 16.1772 39.6224 16.0288 39.9766C15.8803 40.3307 15.7853 40.7656 15.7436 41.2812H15.8217C16.0248 40.9062 16.3061 40.6302 16.6655 40.4531C17.0248 40.276 17.4103 40.1875 17.8217 40.1875C18.2905 40.1875 18.7123 40.2969 19.0873 40.5156C19.4623 40.7344 19.7592 41.0586 19.978 41.4883C20.1967 41.918 20.3061 42.4479 20.3061 43.0781C20.3061 43.7057 20.1941 44.2474 19.9702 44.7031C19.7488 45.1589 19.4376 45.5104 19.0366 45.7578C18.6381 46.0026 18.1707 46.125 17.6342 46.125C17.0978 46.125 16.6277 45.9987 16.2241 45.7461C15.8204 45.4909 15.5066 45.1133 15.2827 44.6133C15.0587 44.1107 14.9467 43.4896 14.9467 42.75V42.1094C14.9467 40.7734 15.1733 39.7604 15.6264 39.0703C16.0821 38.3802 16.767 38.0234 17.6811 38C18.004 37.9896 18.2918 37.987 18.5444 37.9922C18.797 37.9974 19.017 37.9857 19.2045 37.957C19.392 37.9284 19.5509 37.8594 19.6811 37.75ZM17.6342 45.2969C17.9962 45.2969 18.3074 45.2057 18.5678 45.0234C18.8308 44.8411 19.0327 44.5846 19.1733 44.2539C19.3139 43.9206 19.3842 43.5286 19.3842 43.0781C19.3842 42.6406 19.3126 42.2682 19.1694 41.9609C19.0288 41.6536 18.8269 41.4193 18.5639 41.2578C18.3009 41.0964 17.9858 41.0156 17.6186 41.0156C17.3504 41.0156 17.1095 41.0612 16.8959 41.1523C16.6824 41.2435 16.5001 41.3776 16.3491 41.5547C16.198 41.7318 16.0808 41.9479 15.9975 42.2031C15.9168 42.4583 15.8738 42.75 15.8686 43.0781C15.8686 43.75 16.0261 44.2878 16.3413 44.6914C16.6564 45.0951 17.0873 45.2969 17.6342 45.2969ZM23.2619 46.1406C22.8817 46.1406 22.5366 46.069 22.2267 45.9258C21.9168 45.7799 21.6707 45.5703 21.4884 45.2969C21.3061 45.0208 21.215 44.6875 21.215 44.2969C21.215 43.9531 21.2827 43.6745 21.4181 43.4609C21.5535 43.2448 21.7345 43.0755 21.9611 42.9531C22.1877 42.8307 22.4377 42.7396 22.7111 42.6797C22.9871 42.6172 23.2645 42.5677 23.5431 42.5313C23.9077 42.4844 24.2033 42.4492 24.4298 42.4258C24.659 42.3997 24.8257 42.3568 24.9298 42.2969C25.0366 42.237 25.09 42.1328 25.09 41.9844V41.9531C25.09 41.5677 24.9845 41.2682 24.7736 41.0547C24.5653 40.8411 24.2489 40.7344 23.8244 40.7344C23.3843 40.7344 23.0392 40.8307 22.7892 41.0234C22.5392 41.2161 22.3634 41.4219 22.2619 41.6406L21.3869 41.3281C21.5431 40.9635 21.7515 40.6797 22.0119 40.4766C22.2749 40.2708 22.5614 40.1276 22.8713 40.0469C23.1838 39.9635 23.491 39.9219 23.7931 39.9219C23.9858 39.9219 24.2072 39.9453 24.4572 39.9922C24.7098 40.0365 24.9533 40.1289 25.1877 40.2695C25.4246 40.4102 25.6213 40.6224 25.7775 40.9062C25.9338 41.1901 26.0119 41.5703 26.0119 42.0469V46H25.09V45.1875H25.0431C24.9806 45.3177 24.8765 45.457 24.7306 45.6055C24.5848 45.7539 24.3908 45.8802 24.1486 45.9844C23.9064 46.0885 23.6108 46.1406 23.2619 46.1406ZM23.4025 45.3125C23.7671 45.3125 24.0744 45.2409 24.3244 45.0977C24.577 44.9544 24.7671 44.7695 24.8947 44.543C25.0249 44.3164 25.09 44.0781 25.09 43.8281V42.9844C25.0509 43.0312 24.965 43.0742 24.8322 43.1133C24.702 43.1497 24.5509 43.1823 24.3791 43.2109C24.2098 43.237 24.0444 43.2604 23.883 43.2812C23.7241 43.2995 23.5952 43.3151 23.4963 43.3281C23.2567 43.3594 23.0327 43.4102 22.8244 43.4805C22.6186 43.5482 22.452 43.651 22.3244 43.7891C22.1994 43.9245 22.1369 44.1094 22.1369 44.3437C22.1369 44.6641 22.2554 44.9062 22.4923 45.0703C22.7319 45.2318 23.0353 45.3125 23.4025 45.3125ZM27.4745 46V40H29.9276C30.5735 40 31.0865 40.1458 31.4667 40.4375C31.8469 40.7292 32.037 41.1146 32.037 41.5937C32.037 41.9583 31.9289 42.2409 31.7128 42.4414C31.4966 42.6393 31.2193 42.7734 30.8807 42.8438C31.1021 42.875 31.3169 42.9531 31.5253 43.0781C31.7362 43.2031 31.9107 43.375 32.0487 43.5938C32.1867 43.8099 32.2557 44.0755 32.2557 44.3906C32.2557 44.6979 32.1776 44.9727 32.0214 45.2148C31.8651 45.457 31.6412 45.6484 31.3495 45.7891C31.0578 45.9297 30.7089 46 30.3026 46H27.4745ZM28.3495 45.1562H30.3026C30.6203 45.1562 30.869 45.0807 31.0487 44.9297C31.2284 44.7786 31.3182 44.5729 31.3182 44.3125C31.3182 44.0026 31.2284 43.7591 31.0487 43.582C30.869 43.4023 30.6203 43.3125 30.3026 43.3125H28.3495V45.1562ZM28.3495 42.5156H29.9276C30.175 42.5156 30.3873 42.4818 30.5643 42.4141C30.7414 42.3437 30.8768 42.2448 30.9706 42.1172C31.0669 41.987 31.1151 41.8333 31.1151 41.6562C31.1151 41.4036 31.0096 41.2057 30.7987 41.0625C30.5878 40.9167 30.2974 40.8438 29.9276 40.8438H28.3495V42.5156ZM34.3531 44.6406L37.2438 40H38.3063V46H37.3844V41.3594L34.5094 46H33.4313V40H34.3531V44.6406ZM38.9583 40.8594V40H43.8333V40.8594H41.8646V46H40.9427V40.8594H38.9583ZM45.7549 42.1719H47.4737C48.1768 42.1719 48.7146 42.3503 49.087 42.707C49.4593 43.0638 49.6455 43.5156 49.6455 44.0625C49.6455 44.4219 49.5622 44.7487 49.3955 45.043C49.2289 45.3346 48.9841 45.5677 48.6612 45.7422C48.3383 45.9141 47.9424 46 47.4737 46H44.958V40H45.8799V45.1406H47.4737C47.8383 45.1406 48.1377 45.0443 48.3721 44.8516C48.6065 44.6589 48.7237 44.4115 48.7237 44.1094C48.7237 43.7917 48.6065 43.5326 48.3721 43.332C48.1377 43.1315 47.8383 43.0312 47.4737 43.0312H45.7549V42.1719ZM57.7182 42.5781V43.4375H54.4057V42.5781H57.7182ZM54.6245 40V46H53.7026V40H54.6245ZM58.4214 40V46H57.4995V40H58.4214ZM62.3225 46.125C61.7808 46.125 61.3055 45.9961 60.8967 45.7383C60.4904 45.4805 60.1727 45.1198 59.9436 44.6562C59.717 44.1927 59.6037 43.651 59.6037 43.0312C59.6037 42.4062 59.717 41.8607 59.9436 41.3945C60.1727 40.9284 60.4904 40.5664 60.8967 40.3086C61.3055 40.0508 61.7808 39.9219 62.3225 39.9219C62.8641 39.9219 63.3381 40.0508 63.7443 40.3086C64.1532 40.5664 64.4709 40.9284 64.6975 41.3945C64.9266 41.8607 65.0412 42.4062 65.0412 43.0312C65.0412 43.651 64.9266 44.1927 64.6975 44.6562C64.4709 45.1198 64.1532 45.4805 63.7443 45.7383C63.3381 45.9961 62.8641 46.125 62.3225 46.125ZM62.3225 45.2969C62.7339 45.2969 63.0725 45.1914 63.3381 44.9805C63.6037 44.7695 63.8003 44.4922 63.9279 44.1484C64.0555 43.8047 64.1193 43.4323 64.1193 43.0312C64.1193 42.6302 64.0555 42.2565 63.9279 41.9102C63.8003 41.5638 63.6037 41.2839 63.3381 41.0703C63.0725 40.8568 62.7339 40.75 62.3225 40.75C61.911 40.75 61.5725 40.8568 61.3068 41.0703C61.0412 41.2839 60.8446 41.5638 60.717 41.9102C60.5894 42.2565 60.5256 42.6302 60.5256 43.0312C60.5256 43.4323 60.5894 43.8047 60.717 44.1484C60.8446 44.4922 61.0412 44.7695 61.3068 44.9805C61.5725 45.1914 61.911 45.2969 62.3225 45.2969ZM69.5097 44.75L71.6034 40H72.4784L69.8847 46H69.1347L66.5878 40H67.4472L69.5097 44.75ZM67.1503 40V46H66.2284V40H67.1503ZM71.8691 46V40H72.7909V46H71.8691ZM76.7741 46.125C76.1959 46.125 75.6972 45.9974 75.278 45.7422C74.8613 45.4844 74.5397 45.125 74.3131 44.6641C74.0892 44.2005 73.9772 43.6615 73.9772 43.0469C73.9772 42.4323 74.0892 41.8906 74.3131 41.4219C74.5397 40.9505 74.8548 40.5833 75.2584 40.3203C75.6647 40.0547 76.1386 39.9219 76.6803 39.9219C76.9928 39.9219 77.3014 39.974 77.6061 40.0781C77.9108 40.1823 78.1881 40.3516 78.4381 40.5859C78.6881 40.8177 78.8873 41.125 79.0358 41.5078C79.1842 41.8906 79.2584 42.362 79.2584 42.9219V43.3125H74.6334V42.5156H78.3209C78.3209 42.1771 78.2532 41.875 78.1178 41.6094C77.985 41.3437 77.7949 41.1341 77.5475 40.9805C77.3027 40.8268 77.0136 40.75 76.6803 40.75C76.3131 40.75 75.9954 40.8411 75.7272 41.0234C75.4616 41.2031 75.2571 41.4375 75.1139 41.7266C74.9707 42.0156 74.8991 42.3255 74.8991 42.6562V43.1875C74.8991 43.6406 74.9772 44.0247 75.1334 44.3398C75.2923 44.6523 75.5123 44.8906 75.7936 45.0547C76.0748 45.2161 76.4017 45.2969 76.7741 45.2969C77.0163 45.2969 77.235 45.263 77.4303 45.1953C77.6282 45.125 77.7988 45.0208 77.942 44.8828C78.0853 44.7422 78.1959 44.5677 78.2741 44.3594L79.1647 44.6094C79.0709 44.9115 78.9134 45.1771 78.692 45.4062C78.4707 45.6328 78.1972 45.8099 77.8717 45.9375C77.5462 46.0625 77.1803 46.125 76.7741 46.125ZM80.4408 48.25V40H81.3314V40.9531H81.4408C81.5085 40.849 81.6022 40.7161 81.722 40.5547C81.8444 40.3906 82.0189 40.2448 82.2455 40.1172C82.4746 39.987 82.7845 39.9219 83.1752 39.9219C83.6804 39.9219 84.1257 40.0482 84.5111 40.3008C84.8965 40.5534 85.1973 40.9115 85.4134 41.375C85.6296 41.8385 85.7377 42.3854 85.7377 43.0156C85.7377 43.651 85.6296 44.2018 85.4134 44.668C85.1973 45.1315 84.8978 45.4909 84.515 45.7461C84.1322 45.9987 83.6908 46.125 83.1908 46.125C82.8054 46.125 82.4968 46.0612 82.265 45.9336C82.0332 45.8034 81.8548 45.6562 81.7298 45.4922C81.6048 45.3255 81.5085 45.1875 81.4408 45.0781H81.3627V48.25H80.4408ZM81.347 43C81.347 43.4531 81.4134 43.8529 81.5462 44.1992C81.6791 44.543 81.8731 44.8125 82.1283 45.0078C82.3835 45.2005 82.696 45.2969 83.0658 45.2969C83.4512 45.2969 83.7728 45.1953 84.0306 44.9922C84.291 44.7865 84.4864 44.5104 84.6166 44.1641C84.7494 43.8151 84.8158 43.4271 84.8158 43C84.8158 42.5781 84.7507 42.1979 84.6205 41.8594C84.4929 41.5182 84.2989 41.2487 84.0384 41.0508C83.7806 40.8503 83.4564 40.75 83.0658 40.75C82.6908 40.75 82.3757 40.8451 82.1205 41.0352C81.8653 41.2227 81.6726 41.4857 81.5423 41.8242C81.4121 42.1602 81.347 42.5521 81.347 43Z" fill="#838383"/>
<rect x="28" width="30" height="30" rx="5" fill="#26E7FE"/>
<rect x="42" y="7" width="2" height="15" fill="#1E1E1E"/>
<rect x="50.5034" y="13.5254" width="2" height="15" transform="rotate(90.1936 50.5034 13.5254)" fill="#1E1E1E"/>
</svg>
