<svg width="36" height="28" viewBox="0 0 36 28" fill="none" xmlns="http://www.w3.org/2000/svg">
<path d="M26.3359 21.0547L28.125 10.2422H30.5781L28.7969 21.0547H26.3359ZM22.8438 16.875L23.2578 14.4219H34.0703L33.6563 16.875H22.8438Z" fill="#3F424B"/>
<path d="M20.1932 23.1705C19.2992 23.1705 18.5587 22.9886 17.9716 22.625C17.3845 22.2576 16.9716 21.7386 16.733 21.0682C16.4981 20.3939 16.4583 19.5966 16.6136 18.6761C16.7652 17.7784 17.0701 16.9905 17.5284 16.3125C17.9905 15.6345 18.5701 15.1061 19.267 14.7273C19.964 14.3485 20.7405 14.1591 21.5966 14.1591C22.1723 14.1591 22.6932 14.2519 23.1591 14.4375C23.6288 14.6193 24.0189 14.8958 24.3295 15.267C24.6402 15.6345 24.8523 16.0947 24.9659 16.6477C25.0833 17.2008 25.0814 17.8485 24.9602 18.5909L24.8523 19.2557H17.4886L17.7216 17.7557H22.8125C22.8693 17.4072 22.8466 17.0985 22.7443 16.8295C22.642 16.5606 22.4716 16.3504 22.233 16.1989C21.9943 16.0436 21.7008 15.9659 21.3523 15.9659C20.9962 15.9659 20.6629 16.053 20.3523 16.2273C20.0417 16.4015 19.7803 16.6307 19.5682 16.9148C19.3598 17.1951 19.2254 17.5 19.1648 17.8295L18.8977 19.3182C18.822 19.7765 18.8371 20.1572 18.9432 20.4602C19.053 20.7633 19.2424 20.9905 19.5114 21.142C19.7803 21.2898 20.1212 21.3636 20.5341 21.3636C20.803 21.3636 21.0549 21.3258 21.2898 21.25C21.5284 21.1742 21.7405 21.0625 21.9261 20.9148C22.1117 20.7633 22.2633 20.5758 22.3807 20.3523L24.5909 20.5C24.3864 21.0379 24.0758 21.5076 23.6591 21.9091C23.2424 22.3068 22.7405 22.6174 22.1534 22.8409C21.5701 23.0606 20.9167 23.1705 20.1932 23.1705Z" fill="#26E7FE"/>
<path d="M0.255682 24L1.71023 15.2727H4.01136L3.76136 16.8125H3.85795C4.12311 16.3011 4.49242 15.8977 4.96591 15.6023C5.44318 15.3068 5.97917 15.1591 6.57386 15.1591C7.16477 15.1591 7.64583 15.3087 8.01705 15.608C8.39205 15.9034 8.60795 16.3049 8.66477 16.8125H8.75568C9.01326 16.3125 9.40152 15.9129 9.92045 15.6136C10.4394 15.3106 11.0189 15.1591 11.6591 15.1591C12.4659 15.1591 13.0833 15.4186 13.5114 15.9375C13.9394 16.4564 14.0739 17.1875 13.9148 18.1307L12.9375 24H10.517L11.4261 18.608C11.4981 18.1193 11.4261 17.7557 11.2102 17.517C10.9943 17.2746 10.6932 17.1534 10.3068 17.1534C9.86742 17.1534 9.50189 17.2936 9.21023 17.5739C8.91856 17.8504 8.73864 18.2159 8.67045 18.6705L7.76705 24H5.42045L6.34091 18.5568C6.4053 18.125 6.33523 17.7841 6.13068 17.5341C5.92992 17.2803 5.62879 17.1534 5.22727 17.1534C4.96212 17.1534 4.71023 17.2216 4.47159 17.358C4.23674 17.4905 4.03788 17.678 3.875 17.9205C3.71212 18.1591 3.60606 18.4394 3.55682 18.7614L2.67045 24H0.255682ZM18.9469 24.1705C18.053 24.1705 17.3125 23.9886 16.7253 23.625C16.1382 23.2576 15.7253 22.7386 15.4867 22.0682C15.2519 21.3939 15.2121 20.5966 15.3674 19.6761C15.5189 18.7784 15.8238 17.9905 16.2822 17.3125C16.7443 16.6345 17.3238 16.1061 18.0208 15.7273C18.7178 15.3485 19.4943 15.1591 20.3503 15.1591C20.9261 15.1591 21.4469 15.2519 21.9128 15.4375C22.3825 15.6193 22.7727 15.8958 23.0833 16.267C23.3939 16.6345 23.606 17.0947 23.7197 17.6477C23.8371 18.2008 23.8352 18.8485 23.714 19.5909L23.606 20.2557H16.2424L16.4753 18.7557H21.5662C21.6231 18.4072 21.6003 18.0985 21.4981 17.8295C21.3958 17.5606 21.2253 17.3504 20.9867 17.1989C20.7481 17.0436 20.4545 16.9659 20.106 16.9659C19.75 16.9659 19.4166 17.053 19.106 17.2273C18.7954 17.4015 18.5341 17.6307 18.3219 17.9148C18.1136 18.1951 17.9791 18.5 17.9185 18.8295L17.6515 20.3182C17.5757 20.7765 17.5909 21.1572 17.6969 21.4602C17.8068 21.7633 17.9962 21.9905 18.2651 22.142C18.5341 22.2898 18.875 22.3636 19.2878 22.3636C19.5568 22.3636 19.8087 22.3258 20.0435 22.25C20.2822 22.1742 20.4943 22.0625 20.6799 21.9148C20.8655 21.7633 21.017 21.5758 21.1344 21.3523L23.3447 21.5C23.1401 22.0379 22.8295 22.5076 22.4128 22.9091C21.9962 23.3068 21.4943 23.6174 20.9072 23.8409C20.3238 24.0606 19.6704 24.1705 18.9469 24.1705Z" fill="#3F424B"/>
</svg>
