<svg width="366" height="131" viewBox="0 0 366 131" fill="none" xmlns="http://www.w3.org/2000/svg">
<g filter="url(#filter0_d_90_30)">
<rect x="3" width="360" height="124" rx="15" fill="#2F323B"/>
</g>
<path d="M272.392 106.807V102.278H273.17C273.432 102.07 273.676 101.777 273.903 101.398C274.131 101.019 274.324 100.5 274.483 99.8409C274.642 99.1818 274.752 98.3295 274.812 97.2841L275.119 92.3636H282.557V102.278H283.852V106.795H281.83V104H274.415V106.807H272.392ZM275.625 102.278H280.534V94.1307H277.017L276.835 97.2841C276.786 98.0758 276.706 98.7841 276.597 99.4091C276.487 100.034 276.348 100.585 276.182 101.062C276.015 101.536 275.83 101.941 275.625 102.278ZM289.686 104.17C288.833 104.17 288.095 103.983 287.47 103.608C286.845 103.233 286.36 102.708 286.015 102.034C285.674 101.36 285.504 100.572 285.504 99.6705C285.504 98.7689 285.674 97.9792 286.015 97.3011C286.36 96.6231 286.845 96.0966 287.47 95.7216C288.095 95.3466 288.833 95.1591 289.686 95.1591C290.538 95.1591 291.276 95.3466 291.901 95.7216C292.526 96.0966 293.009 96.6231 293.35 97.3011C293.695 97.9792 293.867 98.7689 293.867 99.6705C293.867 100.572 293.695 101.36 293.35 102.034C293.009 102.708 292.526 103.233 291.901 103.608C291.276 103.983 290.538 104.17 289.686 104.17ZM289.697 102.523C290.159 102.523 290.545 102.396 290.856 102.142C291.167 101.884 291.398 101.54 291.549 101.108C291.704 100.676 291.782 100.195 291.782 99.6648C291.782 99.1307 291.704 98.6477 291.549 98.2159C291.398 97.7803 291.167 97.4337 290.856 97.1761C290.545 96.9186 290.159 96.7898 289.697 96.7898C289.223 96.7898 288.829 96.9186 288.515 97.1761C288.204 97.4337 287.971 97.7803 287.816 98.2159C287.665 98.6477 287.589 99.1307 287.589 99.6648C287.589 100.195 287.665 100.676 287.816 101.108C287.971 101.54 288.204 101.884 288.515 102.142C288.829 102.396 289.223 102.523 289.697 102.523ZM303.007 92.0455L303.723 93.375C303.47 93.5947 303.185 93.7538 302.871 93.8523C302.557 93.9508 302.187 94.0152 301.763 94.0455C301.343 94.072 300.843 94.0909 300.263 94.1023C299.612 94.1174 299.079 94.2405 298.666 94.4716C298.254 94.7027 297.937 95.053 297.718 95.5227C297.498 95.9886 297.354 96.5833 297.286 97.3068H297.382C297.655 96.7727 298.038 96.3655 298.53 96.0852C299.023 95.8049 299.6 95.6648 300.263 95.6648C300.987 95.6648 301.625 95.8277 302.178 96.1534C302.735 96.4754 303.168 96.9432 303.479 97.5568C303.793 98.1705 303.951 98.9129 303.951 99.7841C303.951 100.682 303.782 101.46 303.445 102.119C303.108 102.775 302.629 103.28 302.007 103.636C301.39 103.992 300.657 104.17 299.809 104.17C298.964 104.17 298.229 103.987 297.604 103.619C296.983 103.248 296.502 102.701 296.161 101.977C295.824 101.25 295.655 100.354 295.655 99.2898V98.5057C295.655 96.4527 296.038 94.9205 296.803 93.9091C297.568 92.8977 298.702 92.3826 300.206 92.3636C300.653 92.3561 301.053 92.3542 301.405 92.358C301.761 92.3617 302.072 92.3447 302.337 92.3068C302.602 92.2689 302.826 92.1818 303.007 92.0455ZM299.82 102.523C300.24 102.523 300.604 102.415 300.911 102.199C301.218 101.979 301.452 101.669 301.615 101.267C301.782 100.866 301.865 100.39 301.865 99.8409C301.865 99.2992 301.782 98.839 301.615 98.4602C301.449 98.0777 301.212 97.786 300.905 97.5852C300.598 97.3845 300.233 97.2841 299.809 97.2841C299.49 97.2841 299.204 97.3409 298.951 97.4545C298.697 97.5682 298.481 97.7348 298.303 97.9545C298.125 98.1742 297.988 98.4413 297.894 98.7557C297.799 99.0701 297.748 99.4318 297.74 99.8409C297.74 100.663 297.926 101.316 298.297 101.801C298.668 102.282 299.176 102.523 299.82 102.523ZM308.612 104.176C308.059 104.176 307.561 104.078 307.118 103.881C306.678 103.68 306.33 103.384 306.072 102.994C305.818 102.604 305.691 102.123 305.691 101.551C305.691 101.059 305.782 100.652 305.964 100.33C306.146 100.008 306.394 99.75 306.709 99.5568C307.023 99.3636 307.377 99.2178 307.771 99.1193C308.169 99.017 308.58 98.9432 309.004 98.8977C309.515 98.8447 309.93 98.7973 310.248 98.7557C310.566 98.7102 310.798 98.642 310.941 98.5511C311.089 98.4564 311.163 98.3106 311.163 98.1136V98.0795C311.163 97.6515 311.036 97.3201 310.782 97.0852C310.529 96.8504 310.163 96.733 309.686 96.733C309.182 96.733 308.782 96.8428 308.487 97.0625C308.195 97.2822 307.998 97.5417 307.896 97.8409L305.976 97.5682C306.127 97.0379 306.377 96.5947 306.726 96.2386C307.074 95.8788 307.5 95.6098 308.004 95.4318C308.508 95.25 309.065 95.1591 309.674 95.1591C310.095 95.1591 310.513 95.2083 310.93 95.3068C311.347 95.4053 311.727 95.5682 312.072 95.7955C312.417 96.0189 312.693 96.3239 312.902 96.7102C313.114 97.0966 313.22 97.5795 313.22 98.1591V104H311.243V102.801H311.174C311.049 103.044 310.873 103.271 310.646 103.483C310.423 103.691 310.14 103.86 309.799 103.989C309.462 104.114 309.066 104.176 308.612 104.176ZM309.146 102.665C309.559 102.665 309.917 102.583 310.22 102.42C310.523 102.254 310.756 102.034 310.919 101.761C311.085 101.489 311.169 101.191 311.169 100.869V99.8409C311.104 99.8939 310.995 99.9432 310.839 99.9886C310.688 100.034 310.517 100.074 310.328 100.108C310.138 100.142 309.951 100.172 309.765 100.199C309.58 100.225 309.419 100.248 309.282 100.267C308.976 100.309 308.701 100.377 308.459 100.472C308.216 100.566 308.025 100.699 307.885 100.869C307.745 101.036 307.674 101.252 307.674 101.517C307.674 101.896 307.813 102.182 308.089 102.375C308.366 102.568 308.718 102.665 309.146 102.665ZM315.688 104V95.2727H319.353C320.387 95.2727 321.203 95.4792 321.802 95.892C322.404 96.3049 322.705 96.8807 322.705 97.6193C322.705 98.108 322.535 98.5076 322.194 98.8182C321.857 99.125 321.396 99.3314 320.813 99.4375C321.271 99.4754 321.673 99.5909 322.018 99.7841C322.366 99.9773 322.639 100.231 322.836 100.545C323.033 100.86 323.131 101.222 323.131 101.631C323.131 102.112 323.004 102.53 322.751 102.886C322.501 103.239 322.135 103.513 321.654 103.71C321.177 103.903 320.597 104 319.915 104H315.688ZM317.614 102.381H319.915C320.294 102.381 320.591 102.292 320.807 102.114C321.023 101.932 321.131 101.686 321.131 101.375C321.131 101.015 321.023 100.733 320.807 100.528C320.591 100.32 320.294 100.216 319.915 100.216H317.614V102.381ZM317.614 98.8864H319.393C319.673 98.8864 319.913 98.8466 320.114 98.767C320.315 98.6837 320.468 98.5682 320.574 98.4205C320.68 98.2689 320.734 98.089 320.734 97.8807C320.734 97.5814 320.61 97.3466 320.364 97.1761C320.122 97.0057 319.785 96.9205 319.353 96.9205H317.614V98.8864ZM327.212 101.216L330.706 95.2727H332.82V104H330.831V98.0511L327.348 104H325.229V95.2727H327.212V101.216ZM334.355 96.9602V95.2727H341.991V96.9602H339.167V104H337.178V96.9602H334.355ZM345.421 98.1136H347.995C349.108 98.1136 349.97 98.3845 350.58 98.9261C351.19 99.4678 351.496 100.178 351.5 101.057C351.496 101.629 351.356 102.136 351.08 102.58C350.807 103.023 350.409 103.371 349.887 103.625C349.368 103.875 348.737 104 347.995 104H344.029V95.2727H346.012V102.312H347.995C348.442 102.312 348.809 102.199 349.097 101.972C349.385 101.741 349.529 101.445 349.529 101.085C349.529 100.706 349.385 100.398 349.097 100.159C348.809 99.9205 348.442 99.8011 347.995 99.8011H345.421V98.1136Z" fill="#1ABABA"/>
<path d="M114.233 60V49.8182H117.793C118.502 49.8182 119.087 49.9408 119.548 50.1861C120.008 50.428 120.351 50.7545 120.577 51.1655C120.802 51.5732 120.915 52.0256 120.915 52.5227C120.915 52.9602 120.837 53.3215 120.681 53.6065C120.529 53.8916 120.326 54.117 120.075 54.2827C119.826 54.4484 119.556 54.571 119.264 54.6506V54.75C119.576 54.7699 119.889 54.8793 120.204 55.0781C120.519 55.277 120.782 55.562 120.994 55.9332C121.206 56.3045 121.312 56.7585 121.312 57.2955C121.312 57.8059 121.196 58.2649 120.964 58.6726C120.732 59.0803 120.366 59.4034 119.866 59.642C119.365 59.8807 118.714 60 117.912 60H114.233ZM115.466 58.9062H117.912C118.717 58.9062 119.289 58.7505 119.627 58.4389C119.969 58.1241 120.139 57.7429 120.139 57.2955C120.139 56.9508 120.051 56.6326 119.876 56.3409C119.7 56.0459 119.45 55.8106 119.125 55.6349C118.8 55.456 118.416 55.3665 117.972 55.3665H115.466V58.9062ZM115.466 54.2926H117.753C118.124 54.2926 118.459 54.2197 118.757 54.0739C119.059 53.928 119.297 53.7225 119.473 53.4574C119.652 53.1922 119.741 52.8807 119.741 52.5227C119.741 52.0753 119.586 51.6958 119.274 51.3842C118.963 51.0694 118.469 50.9119 117.793 50.9119H115.466V54.2926ZM126.002 60.1591C125.286 60.1591 124.669 59.9901 124.152 59.652C123.635 59.3139 123.237 58.8482 122.959 58.255C122.681 57.6617 122.541 56.9839 122.541 56.2216C122.541 55.446 122.684 54.7616 122.969 54.1683C123.257 53.5717 123.658 53.1061 124.172 52.7713C124.689 52.4332 125.292 52.2642 125.982 52.2642C126.519 52.2642 127.003 52.3636 127.433 52.5625C127.864 52.7614 128.217 53.0398 128.492 53.3977C128.767 53.7557 128.938 54.1733 129.004 54.6506H127.831C127.742 54.3026 127.543 53.9943 127.235 53.7259C126.93 53.4541 126.519 53.3182 126.002 53.3182C125.544 53.3182 125.143 53.4375 124.798 53.6761C124.457 53.9115 124.19 54.2446 123.998 54.6754C123.809 55.103 123.715 55.6051 123.715 56.1818C123.715 56.7718 123.807 57.2855 123.993 57.723C124.182 58.1605 124.447 58.5002 124.789 58.7422C125.133 58.9841 125.538 59.1051 126.002 59.1051C126.307 59.1051 126.583 59.0521 126.832 58.946C127.08 58.84 127.291 58.6875 127.463 58.4886C127.636 58.2898 127.758 58.0511 127.831 57.7727H129.004C128.938 58.2235 128.774 58.6295 128.512 58.9908C128.254 59.3487 127.911 59.6338 127.483 59.8459C127.059 60.0547 126.565 60.1591 126.002 60.1591ZM133.641 60.1591C132.906 60.1591 132.271 59.9967 131.737 59.6719C131.207 59.3438 130.798 58.8864 130.509 58.2997C130.224 57.7098 130.082 57.0237 130.082 56.2415C130.082 55.4593 130.224 54.7699 130.509 54.1733C130.798 53.5734 131.199 53.1061 131.712 52.7713C132.229 52.4332 132.833 52.2642 133.522 52.2642C133.92 52.2642 134.313 52.3305 134.7 52.4631C135.088 52.5956 135.441 52.8111 135.759 53.1094C136.077 53.4044 136.331 53.7955 136.52 54.2827C136.709 54.7699 136.803 55.3698 136.803 56.0824V56.5795H130.917V55.5653H135.61C135.61 55.1345 135.524 54.75 135.352 54.4119C135.183 54.0739 134.941 53.8071 134.626 53.6115C134.314 53.416 133.946 53.3182 133.522 53.3182C133.055 53.3182 132.65 53.4342 132.309 53.6662C131.971 53.8949 131.711 54.1932 131.528 54.5611C131.346 54.929 131.255 55.3234 131.255 55.7443V56.4205C131.255 56.9972 131.354 57.486 131.553 57.8871C131.755 58.2848 132.036 58.5881 132.393 58.7969C132.751 59.0024 133.167 59.1051 133.641 59.1051C133.95 59.1051 134.228 59.062 134.477 58.9759C134.728 58.8864 134.946 58.7538 135.128 58.5781C135.31 58.3991 135.451 58.1771 135.55 57.9119L136.684 58.2301C136.565 58.6146 136.364 58.9527 136.082 59.2443C135.801 59.5327 135.453 59.758 135.038 59.9205C134.624 60.0795 134.158 60.1591 133.641 60.1591ZM141.966 60V52.3636H147.971V60H146.798V53.4574H143.139V60H141.966ZM149.158 60V58.9062H149.436C149.665 58.9062 149.856 58.8615 150.008 58.772C150.16 58.6792 150.283 58.5185 150.376 58.2898C150.472 58.0578 150.545 57.7363 150.595 57.3253C150.648 56.911 150.686 56.384 150.709 55.7443L150.848 52.3636H155.939V60H154.766V53.4574H151.962L151.843 56.1818C151.816 56.8082 151.76 57.3601 151.674 57.8374C151.591 58.3113 151.463 58.709 151.291 59.0305C151.122 59.352 150.896 59.594 150.615 59.7564C150.333 59.9188 149.98 60 149.556 60H149.158ZM160.059 60.179C159.575 60.179 159.136 60.0878 158.742 59.9055C158.347 59.7199 158.034 59.4531 157.802 59.1051C157.57 58.7538 157.454 58.3295 157.454 57.8324C157.454 57.3949 157.54 57.0402 157.712 56.7685C157.885 56.4934 158.115 56.2779 158.403 56.1222C158.692 55.9664 159.01 55.8504 159.358 55.7741C159.709 55.6946 160.062 55.6316 160.417 55.5852C160.881 55.5256 161.257 55.4808 161.545 55.451C161.837 55.4179 162.049 55.3632 162.182 55.2869C162.318 55.2107 162.386 55.0781 162.386 54.8892V54.8494C162.386 54.3589 162.251 53.9777 161.983 53.706C161.718 53.4342 161.315 53.2983 160.775 53.2983C160.215 53.2983 159.776 53.4209 159.457 53.6662C159.139 53.9115 158.916 54.1733 158.786 54.4517L157.673 54.054C157.871 53.59 158.137 53.2287 158.468 52.9702C158.803 52.7083 159.167 52.526 159.562 52.4233C159.96 52.3172 160.351 52.2642 160.735 52.2642C160.98 52.2642 161.262 52.294 161.58 52.3537C161.902 52.41 162.212 52.5277 162.51 52.7067C162.812 52.8857 163.062 53.1558 163.261 53.517C163.46 53.8783 163.559 54.3622 163.559 54.9688V60H162.386V58.9659H162.326C162.246 59.1316 162.114 59.3089 161.928 59.4979C161.743 59.6868 161.496 59.8475 161.188 59.9801C160.879 60.1127 160.503 60.179 160.059 60.179ZM160.238 59.125C160.702 59.125 161.093 59.0339 161.411 58.8516C161.733 58.6693 161.975 58.4339 162.137 58.1456C162.303 57.8572 162.386 57.554 162.386 57.2358V56.1619C162.336 56.2216 162.227 56.2763 162.058 56.326C161.892 56.3724 161.7 56.4138 161.481 56.4503C161.265 56.4834 161.055 56.5133 160.849 56.5398C160.647 56.563 160.483 56.5829 160.357 56.5994C160.052 56.6392 159.767 56.7038 159.502 56.7933C159.24 56.8795 159.028 57.0104 158.866 57.1861C158.707 57.3584 158.627 57.5937 158.627 57.892C158.627 58.2997 158.778 58.608 159.08 58.8168C159.385 59.0223 159.771 59.125 160.238 59.125ZM164.381 53.4574V52.3636H170.586V53.4574H168.08V60H166.907V53.4574H164.381ZM174.823 60.1591C174.087 60.1591 173.452 59.9967 172.919 59.6719C172.388 59.3438 171.979 58.8864 171.691 58.2997C171.406 57.7098 171.263 57.0237 171.263 56.2415C171.263 55.4593 171.406 54.7699 171.691 54.1733C171.979 53.5734 172.38 53.1061 172.894 52.7713C173.411 52.4332 174.014 52.2642 174.703 52.2642C175.101 52.2642 175.494 52.3305 175.882 52.4631C176.269 52.5956 176.622 52.8111 176.941 53.1094C177.259 53.4044 177.512 53.7955 177.701 54.2827C177.89 54.7699 177.985 55.3698 177.985 56.0824V56.5795H172.098V55.5653H176.791C176.791 55.1345 176.705 54.75 176.533 54.4119C176.364 54.0739 176.122 53.8071 175.807 53.6115C175.495 53.416 175.128 53.3182 174.703 53.3182C174.236 53.3182 173.832 53.4342 173.49 53.6662C173.152 53.8949 172.892 54.1932 172.71 54.5611C172.527 54.929 172.436 55.3234 172.436 55.7443V56.4205C172.436 56.9972 172.536 57.486 172.735 57.8871C172.937 58.2848 173.217 58.5881 173.575 58.7969C173.933 59.0024 174.349 59.1051 174.823 59.1051C175.131 59.1051 175.409 59.062 175.658 58.9759C175.91 58.8864 176.127 58.7538 176.309 58.5781C176.491 58.3991 176.632 58.1771 176.732 57.9119L177.865 58.2301C177.746 58.6146 177.545 58.9527 177.264 59.2443C176.982 59.5327 176.634 59.758 176.22 59.9205C175.805 60.0795 175.34 60.1591 174.823 60.1591ZM178.807 60L181.909 56.1222L178.847 52.3636H180.239L182.784 55.625H183.421V52.3636H184.594V55.625H185.21L187.756 52.3636H189.148L186.105 56.1222L189.188 60H187.776L185.191 56.7188H184.594V60H183.421V56.7188H182.824L180.219 60H178.807ZM191.758 58.2699L195.437 52.3636H196.789V60H195.616V54.0938L191.957 60H190.584V52.3636H191.758V58.2699ZM201.5 62.1875V58.9062H202.136C202.292 58.7438 202.426 58.5682 202.539 58.3793C202.652 58.1903 202.75 57.9666 202.832 57.7081C202.919 57.4463 202.992 57.1281 203.051 56.7536C203.111 56.3757 203.164 55.92 203.21 55.3864L203.469 52.3636H208.321V58.9062H209.494V62.1875H208.321V60H202.673V62.1875H201.5ZM203.469 58.9062H207.148V53.4574H204.563L204.364 55.3864C204.281 56.1851 204.178 56.8828 204.055 57.4794C203.933 58.076 203.737 58.5516 203.469 58.9062ZM210.096 60V58.9062H210.374C210.603 58.9062 210.793 58.8615 210.946 58.772C211.098 58.6792 211.221 58.5185 211.314 58.2898C211.41 58.0578 211.483 57.7363 211.532 57.3253C211.585 56.911 211.624 56.384 211.647 55.7443L211.786 52.3636H216.877V60H215.704V53.4574H212.9L212.78 56.1818C212.754 56.8082 212.697 57.3601 212.611 57.8374C212.528 58.3113 212.401 58.709 212.228 59.0305C212.059 59.352 211.834 59.594 211.552 59.7564C211.271 59.9188 210.918 60 210.493 60H210.096ZM223.343 60V53.4375H221.315C220.858 53.4375 220.498 53.5436 220.236 53.7557C219.974 53.9678 219.843 54.2595 219.843 54.6307C219.843 54.9953 219.961 55.282 220.196 55.4908C220.435 55.6996 220.761 55.804 221.176 55.804H223.642V56.8977H221.176C220.659 56.8977 220.213 56.8066 219.838 56.6243C219.464 56.442 219.175 56.1818 218.973 55.8438C218.771 55.5024 218.67 55.098 218.67 54.6307C218.67 54.16 218.776 53.7557 218.988 53.4176C219.2 53.0795 219.504 52.8194 219.898 52.6371C220.296 52.4548 220.768 52.3636 221.315 52.3636H224.457V60H223.343ZM218.252 60L220.42 56.2017H221.693L219.525 60H218.252ZM229.988 60V52.3636H233.111C233.933 52.3636 234.585 52.5492 235.069 52.9205C235.553 53.2917 235.795 53.7822 235.795 54.392C235.795 54.8561 235.658 55.2157 235.383 55.4709C235.107 55.7228 234.754 55.8935 234.324 55.983C234.605 56.0227 234.879 56.1222 235.144 56.2812C235.412 56.4403 235.634 56.6591 235.81 56.9375C235.986 57.2126 236.074 57.5507 236.074 57.9517C236.074 58.3428 235.974 58.6925 235.775 59.0007C235.576 59.3089 235.291 59.5526 234.92 59.7315C234.549 59.9105 234.105 60 233.588 60H229.988ZM231.102 58.9261H233.588C233.992 58.9261 234.309 58.83 234.537 58.6378C234.766 58.4455 234.88 58.1837 234.88 57.8523C234.88 57.4579 234.766 57.148 234.537 56.9226C234.309 56.6939 233.992 56.5795 233.588 56.5795H231.102V58.9261ZM231.102 55.5653H233.111C233.425 55.5653 233.696 55.5223 233.921 55.4361C234.146 55.3466 234.319 55.2206 234.438 55.0582C234.561 54.8925 234.622 54.697 234.622 54.4716C234.622 54.1501 234.488 53.8982 234.219 53.7159C233.951 53.5303 233.581 53.4375 233.111 53.4375H231.102V55.5653ZM239.817 60.179C239.333 60.179 238.894 60.0878 238.499 59.9055C238.105 59.7199 237.792 59.4531 237.56 59.1051C237.328 58.7538 237.212 58.3295 237.212 57.8324C237.212 57.3949 237.298 57.0402 237.47 56.7685C237.643 56.4934 237.873 56.2779 238.161 56.1222C238.45 55.9664 238.768 55.8504 239.116 55.7741C239.467 55.6946 239.82 55.6316 240.175 55.5852C240.639 55.5256 241.015 55.4808 241.303 55.451C241.595 55.4179 241.807 55.3632 241.94 55.2869C242.076 55.2107 242.144 55.0781 242.144 54.8892V54.8494C242.144 54.3589 242.009 53.9777 241.741 53.706C241.476 53.4342 241.073 53.2983 240.533 53.2983C239.973 53.2983 239.533 53.4209 239.215 53.6662C238.897 53.9115 238.673 54.1733 238.544 54.4517L237.431 54.054C237.629 53.59 237.895 53.2287 238.226 52.9702C238.561 52.7083 238.925 52.526 239.32 52.4233C239.717 52.3172 240.109 52.2642 240.493 52.2642C240.738 52.2642 241.02 52.294 241.338 52.3537C241.66 52.41 241.97 52.5277 242.268 52.7067C242.569 52.8857 242.82 53.1558 243.019 53.517C243.217 53.8783 243.317 54.3622 243.317 54.9688V60H242.144V58.9659H242.084C242.004 59.1316 241.872 59.3089 241.686 59.4979C241.501 59.6868 241.254 59.8475 240.945 59.9801C240.637 60.1127 240.261 60.179 239.817 60.179ZM239.996 59.125C240.46 59.125 240.851 59.0339 241.169 58.8516C241.491 58.6693 241.733 58.4339 241.895 58.1456C242.061 57.8572 242.144 57.554 242.144 57.2358V56.1619C242.094 56.2216 241.984 56.2763 241.815 56.326C241.65 56.3724 241.458 56.4138 241.239 56.4503C241.023 56.4834 240.813 56.5133 240.607 56.5398C240.405 56.563 240.241 56.5829 240.115 56.5994C239.81 56.6392 239.525 56.7038 239.26 56.7933C238.998 56.8795 238.786 57.0104 238.624 57.1861C238.465 57.3584 238.385 57.5937 238.385 57.892C238.385 58.2997 238.536 58.608 238.837 58.8168C239.142 59.0223 239.529 59.125 239.996 59.125ZM245.178 52.3636H246.352V58.9062H249.235V52.3636H250.409V58.9062H253.292V52.3636H254.465V60H245.178V52.3636ZM259.53 60.1591C258.794 60.1591 258.159 59.9967 257.626 59.6719C257.095 59.3438 256.686 58.8864 256.398 58.2997C256.113 57.7098 255.97 57.0237 255.97 56.2415C255.97 55.4593 256.113 54.7699 256.398 54.1733C256.686 53.5734 257.087 53.1061 257.601 52.7713C258.118 52.4332 258.721 52.2642 259.41 52.2642C259.808 52.2642 260.201 52.3305 260.589 52.4631C260.977 52.5956 261.329 52.8111 261.648 53.1094C261.966 53.4044 262.219 53.7955 262.408 54.2827C262.597 54.7699 262.692 55.3698 262.692 56.0824V56.5795H256.805V55.5653H261.499C261.499 55.1345 261.412 54.75 261.24 54.4119C261.071 54.0739 260.829 53.8071 260.514 53.6115C260.203 53.416 259.835 53.3182 259.41 53.3182C258.943 53.3182 258.539 53.4342 258.197 53.6662C257.859 53.8949 257.599 54.1932 257.417 54.5611C257.235 54.929 257.143 55.3234 257.143 55.7443V56.4205C257.143 56.9972 257.243 57.486 257.442 57.8871C257.644 58.2848 257.924 58.5881 258.282 58.7969C258.64 59.0024 259.056 59.1051 259.53 59.1051C259.838 59.1051 260.116 59.062 260.365 58.9759C260.617 58.8864 260.834 58.7538 261.016 58.5781C261.199 58.3991 261.339 58.1771 261.439 57.9119L262.572 58.2301C262.453 58.6146 262.253 58.9527 261.971 59.2443C261.689 59.5327 261.341 59.758 260.927 59.9205C260.512 60.0795 260.047 60.1591 259.53 60.1591ZM268.91 52.3636V53.4574H265.37V60H264.197V52.3636H268.91ZM273.048 60.1591C272.359 60.1591 271.754 59.995 271.233 59.6669C270.716 59.3388 270.312 58.8797 270.02 58.2898C269.732 57.6998 269.588 57.0104 269.588 56.2216C269.588 55.4261 269.732 54.7318 270.02 54.1385C270.312 53.5452 270.716 53.0845 271.233 52.7564C271.754 52.4283 272.359 52.2642 273.048 52.2642C273.737 52.2642 274.341 52.4283 274.858 52.7564C275.378 53.0845 275.782 53.5452 276.071 54.1385C276.362 54.7318 276.508 55.4261 276.508 56.2216C276.508 57.0104 276.362 57.6998 276.071 58.2898C275.782 58.8797 275.378 59.3388 274.858 59.6669C274.341 59.995 273.737 60.1591 273.048 60.1591ZM273.048 59.1051C273.572 59.1051 274.003 58.9709 274.341 58.7024C274.679 58.4339 274.929 58.081 275.091 57.6435C275.254 57.206 275.335 56.732 275.335 56.2216C275.335 55.7112 275.254 55.2356 275.091 54.7947C274.929 54.3539 274.679 53.9976 274.341 53.7259C274.003 53.4541 273.572 53.3182 273.048 53.3182C272.524 53.3182 272.094 53.4541 271.755 53.7259C271.417 53.9976 271.167 54.3539 271.005 54.7947C270.842 55.2356 270.761 55.7112 270.761 56.2216C270.761 56.732 270.842 57.206 271.005 57.6435C271.167 58.081 271.417 58.4339 271.755 58.7024C272.094 58.9709 272.524 59.1051 273.048 59.1051ZM280.861 62.1875V58.9062H281.498C281.654 58.7438 281.788 58.5682 281.901 58.3793C282.013 58.1903 282.111 57.9666 282.194 57.7081C282.28 57.4463 282.353 57.1281 282.413 56.7536C282.472 56.3757 282.525 55.92 282.572 55.3864L282.83 52.3636H287.683V58.9062H288.856V62.1875H287.683V60H282.035V62.1875H280.861ZM282.83 58.9062H286.509V53.4574H283.924L283.725 55.3864C283.642 56.1851 283.54 56.8828 283.417 57.4794C283.294 58.076 283.099 58.5516 282.83 58.9062ZM293.235 60.1591C292.546 60.1591 291.941 59.995 291.421 59.6669C290.904 59.3388 290.499 58.8797 290.208 58.2898C289.919 57.6998 289.775 57.0104 289.775 56.2216C289.775 55.4261 289.919 54.7318 290.208 54.1385C290.499 53.5452 290.904 53.0845 291.421 52.7564C291.941 52.4283 292.546 52.2642 293.235 52.2642C293.925 52.2642 294.528 52.4283 295.045 52.7564C295.565 53.0845 295.97 53.5452 296.258 54.1385C296.55 54.7318 296.696 55.4261 296.696 56.2216C296.696 57.0104 296.55 57.6998 296.258 58.2898C295.97 58.8797 295.565 59.3388 295.045 59.6669C294.528 59.995 293.925 60.1591 293.235 60.1591ZM293.235 59.1051C293.759 59.1051 294.19 58.9709 294.528 58.7024C294.866 58.4339 295.116 58.081 295.279 57.6435C295.441 57.206 295.522 56.732 295.522 56.2216C295.522 55.7112 295.441 55.2356 295.279 54.7947C295.116 54.3539 294.866 53.9976 294.528 53.7259C294.19 53.4541 293.759 53.3182 293.235 53.3182C292.712 53.3182 292.281 53.4541 291.943 53.7259C291.605 53.9976 291.355 54.3539 291.192 54.7947C291.03 55.2356 290.949 55.7112 290.949 56.2216C290.949 56.732 291.03 57.206 291.192 57.6435C291.355 58.081 291.605 58.4339 291.943 58.7024C292.281 58.9709 292.712 59.1051 293.235 59.1051ZM302.383 58.4091L305.048 52.3636H306.161L302.86 60H301.906L298.664 52.3636H299.758L302.383 58.4091ZM299.38 52.3636V60H298.207V52.3636H299.38ZM305.386 60V52.3636H306.559V60H305.386ZM310.674 60.179C310.19 60.179 309.751 60.0878 309.356 59.9055C308.962 59.7199 308.649 59.4531 308.417 59.1051C308.185 58.7538 308.069 58.3295 308.069 57.8324C308.069 57.3949 308.155 57.0402 308.327 56.7685C308.5 56.4934 308.73 56.2779 309.018 56.1222C309.307 55.9664 309.625 55.8504 309.973 55.7741C310.324 55.6946 310.677 55.6316 311.032 55.5852C311.496 55.5256 311.872 55.4808 312.16 55.451C312.452 55.4179 312.664 55.3632 312.797 55.2869C312.933 55.2107 313.001 55.0781 313.001 54.8892V54.8494C313.001 54.3589 312.866 53.9777 312.598 53.706C312.333 53.4342 311.93 53.2983 311.39 53.2983C310.83 53.2983 310.39 53.4209 310.072 53.6662C309.754 53.9115 309.53 54.1733 309.401 54.4517L308.287 54.054C308.486 53.59 308.751 53.2287 309.083 52.9702C309.418 52.7083 309.782 52.526 310.177 52.4233C310.574 52.3172 310.966 52.2642 311.35 52.2642C311.595 52.2642 311.877 52.294 312.195 52.3537C312.517 52.41 312.827 52.5277 313.125 52.7067C313.426 52.8857 313.677 53.1558 313.876 53.517C314.074 53.8783 314.174 54.3622 314.174 54.9688V60H313.001V58.9659H312.941C312.861 59.1316 312.729 59.3089 312.543 59.4979C312.358 59.6868 312.111 59.8475 311.802 59.9801C311.494 60.1127 311.118 60.179 310.674 60.179ZM310.853 59.125C311.317 59.125 311.708 59.0339 312.026 58.8516C312.348 58.6693 312.59 58.4339 312.752 58.1456C312.918 57.8572 313.001 57.554 313.001 57.2358V56.1619C312.951 56.2216 312.841 56.2763 312.672 56.326C312.507 56.3724 312.314 56.4138 312.096 56.4503C311.88 56.4834 311.67 56.5133 311.464 56.5398C311.262 56.563 311.098 56.5829 310.972 56.5994C310.667 56.6392 310.382 56.7038 310.117 56.7933C309.855 56.8795 309.643 57.0104 309.481 57.1861C309.322 57.3584 309.242 57.5937 309.242 57.892C309.242 58.2997 309.393 58.608 309.694 58.8168C309.999 59.0223 310.385 59.125 310.853 59.125ZM319.693 60V52.3636H322.815C323.637 52.3636 324.29 52.5492 324.774 52.9205C325.258 53.2917 325.5 53.7822 325.5 54.392C325.5 54.8561 325.362 55.2157 325.087 55.4709C324.812 55.7228 324.459 55.8935 324.028 55.983C324.31 56.0227 324.583 56.1222 324.848 56.2812C325.117 56.4403 325.339 56.6591 325.515 56.9375C325.69 57.2126 325.778 57.5507 325.778 57.9517C325.778 58.3428 325.679 58.6925 325.48 59.0007C325.281 59.3089 324.996 59.5526 324.625 59.7315C324.253 59.9105 323.809 60 323.292 60H319.693ZM320.806 58.9261H323.292C323.697 58.9261 324.013 58.83 324.242 58.6378C324.471 58.4455 324.585 58.1837 324.585 57.8523C324.585 57.4579 324.471 57.148 324.242 56.9226C324.013 56.6939 323.697 56.5795 323.292 56.5795H320.806V58.9261ZM320.806 55.5653H322.815C323.13 55.5653 323.4 55.5223 323.625 55.4361C323.851 55.3466 324.023 55.2206 324.142 55.0582C324.265 54.8925 324.326 54.697 324.326 54.4716C324.326 54.1501 324.192 53.8982 323.924 53.7159C323.655 53.5303 323.286 53.4375 322.815 53.4375H320.806V55.5653ZM117.176 77.1591C116.487 77.1591 115.882 76.995 115.362 76.6669C114.844 76.3388 114.44 75.8797 114.148 75.2898C113.86 74.6998 113.716 74.0104 113.716 73.2216C113.716 72.4261 113.86 71.7318 114.148 71.1385C114.44 70.5452 114.844 70.0845 115.362 69.7564C115.882 69.4283 116.487 69.2642 117.176 69.2642C117.866 69.2642 118.469 69.4283 118.986 69.7564C119.506 70.0845 119.911 70.5452 120.199 71.1385C120.491 71.7318 120.636 72.4261 120.636 73.2216C120.636 74.0104 120.491 74.6998 120.199 75.2898C119.911 75.8797 119.506 76.3388 118.986 76.6669C118.469 76.995 117.866 77.1591 117.176 77.1591ZM117.176 76.1051C117.7 76.1051 118.131 75.9709 118.469 75.7024C118.807 75.4339 119.057 75.081 119.219 74.6435C119.382 74.206 119.463 73.732 119.463 73.2216C119.463 72.7112 119.382 72.2356 119.219 71.7947C119.057 71.3539 118.807 70.9976 118.469 70.7259C118.131 70.4541 117.7 70.3182 117.176 70.3182C116.652 70.3182 116.222 70.4541 115.884 70.7259C115.545 70.9976 115.295 71.3539 115.133 71.7947C114.97 72.2356 114.889 72.7112 114.889 73.2216C114.889 73.732 114.97 74.206 115.133 74.6435C115.295 75.081 115.545 75.4339 115.884 75.7024C116.222 75.9709 116.652 76.1051 117.176 76.1051ZM121.332 79.1875V75.9062H121.968C122.124 75.7438 122.258 75.5682 122.371 75.3793C122.484 75.1903 122.582 74.9666 122.664 74.7081C122.751 74.4463 122.824 74.1281 122.883 73.7536C122.943 73.3757 122.996 72.92 123.042 72.3864L123.301 69.3636H128.153V75.9062H129.326V79.1875H128.153V77H122.505V79.1875H121.332ZM123.301 75.9062H126.98V70.4574H124.395L124.196 72.3864C124.113 73.1851 124.01 73.8828 123.887 74.4794C123.765 75.076 123.569 75.5516 123.301 75.9062ZM135.715 72.6449V73.7386H131.499V72.6449H135.715ZM131.777 69.3636V77H130.604V69.3636H131.777ZM136.609 69.3636V77H135.436V69.3636H136.609ZM141.574 77.1591C140.885 77.1591 140.28 76.995 139.76 76.6669C139.243 76.3388 138.838 75.8797 138.547 75.2898C138.258 74.6998 138.114 74.0104 138.114 73.2216C138.114 72.4261 138.258 71.7318 138.547 71.1385C138.838 70.5452 139.243 70.0845 139.76 69.7564C140.28 69.4283 140.885 69.2642 141.574 69.2642C142.264 69.2642 142.867 69.4283 143.384 69.7564C143.904 70.0845 144.309 70.5452 144.597 71.1385C144.889 71.7318 145.035 72.4261 145.035 73.2216C145.035 74.0104 144.889 74.6998 144.597 75.2898C144.309 75.8797 143.904 76.3388 143.384 76.6669C142.867 76.995 142.264 77.1591 141.574 77.1591ZM141.574 76.1051C142.098 76.1051 142.529 75.9709 142.867 75.7024C143.205 75.4339 143.455 75.081 143.618 74.6435C143.78 74.206 143.861 73.732 143.861 73.2216C143.861 72.7112 143.78 72.2356 143.618 71.7947C143.455 71.3539 143.205 70.9976 142.867 70.7259C142.529 70.4541 142.098 70.3182 141.574 70.3182C141.051 70.3182 140.62 70.4541 140.282 70.7259C139.944 70.9976 139.693 71.3539 139.531 71.7947C139.369 72.2356 139.287 72.7112 139.287 73.2216C139.287 73.732 139.369 74.206 139.531 74.6435C139.693 75.081 139.944 75.4339 140.282 75.7024C140.62 75.9709 141.051 76.1051 141.574 76.1051ZM150.722 75.4091L153.387 69.3636H154.5L151.199 77H150.245L147.003 69.3636H148.097L150.722 75.4091ZM147.719 69.3636V77H146.546V69.3636H147.719ZM153.725 77V69.3636H154.898V77H153.725ZM164.599 75.4091L167.264 69.3636H168.378L165.077 77H164.122L160.881 69.3636H161.974L164.599 75.4091ZM161.596 69.3636V77H160.423V69.3636H161.596ZM167.602 77V69.3636H168.775V77H167.602ZM173.845 77.1591C173.109 77.1591 172.474 76.9967 171.941 76.6719C171.41 76.3438 171.001 75.8864 170.713 75.2997C170.428 74.7098 170.285 74.0237 170.285 73.2415C170.285 72.4593 170.428 71.7699 170.713 71.1733C171.001 70.5734 171.402 70.1061 171.916 69.7713C172.433 69.4332 173.036 69.2642 173.726 69.2642C174.123 69.2642 174.516 69.3305 174.904 69.4631C175.292 69.5956 175.645 69.8111 175.963 70.1094C176.281 70.4044 176.534 70.7955 176.723 71.2827C176.912 71.7699 177.007 72.3698 177.007 73.0824V73.5795H171.12V72.5653H175.814C175.814 72.1345 175.727 71.75 175.555 71.4119C175.386 71.0739 175.144 70.8071 174.829 70.6115C174.518 70.416 174.15 70.3182 173.726 70.3182C173.258 70.3182 172.854 70.4342 172.512 70.6662C172.174 70.8949 171.914 71.1932 171.732 71.5611C171.55 71.929 171.459 72.3234 171.459 72.7443V73.4205C171.459 73.9972 171.558 74.486 171.757 74.8871C171.959 75.2848 172.239 75.5881 172.597 75.7969C172.955 76.0024 173.371 76.1051 173.845 76.1051C174.153 76.1051 174.432 76.062 174.68 75.9759C174.932 75.8864 175.149 75.7538 175.331 75.5781C175.514 75.3991 175.655 75.1771 175.754 74.9119L176.887 75.2301C176.768 75.6146 176.568 75.9527 176.286 76.2443C176.004 76.5327 175.656 76.758 175.242 76.9205C174.828 77.0795 174.362 77.1591 173.845 77.1591ZM181.614 77.1591C180.898 77.1591 180.281 76.9901 179.764 76.652C179.247 76.3139 178.85 75.8482 178.571 75.255C178.293 74.6617 178.154 73.9839 178.154 73.2216C178.154 72.446 178.296 71.7616 178.581 71.1683C178.87 70.5717 179.271 70.1061 179.784 69.7713C180.301 69.4332 180.905 69.2642 181.594 69.2642C182.131 69.2642 182.615 69.3636 183.046 69.5625C183.477 69.7614 183.83 70.0398 184.105 70.3977C184.38 70.7557 184.55 71.1733 184.617 71.6506H183.443C183.354 71.3026 183.155 70.9943 182.847 70.7259C182.542 70.4541 182.131 70.3182 181.614 70.3182C181.156 70.3182 180.755 70.4375 180.411 70.6761C180.069 70.9115 179.803 71.2446 179.61 71.6754C179.421 72.103 179.327 72.6051 179.327 73.1818C179.327 73.7718 179.42 74.2855 179.605 74.723C179.794 75.1605 180.059 75.5002 180.401 75.7422C180.746 75.9841 181.15 76.1051 181.614 76.1051C181.919 76.1051 182.196 76.0521 182.444 75.946C182.693 75.84 182.903 75.6875 183.076 75.4886C183.248 75.2898 183.371 75.0511 183.443 74.7727H184.617C184.55 75.2235 184.386 75.6295 184.125 75.9908C183.866 76.3487 183.523 76.6338 183.095 76.8459C182.671 77.0547 182.177 77.1591 181.614 77.1591ZM185.45 70.4574V69.3636H191.655V70.4574H189.149V77H187.976V70.4574H185.45ZM195.892 77.1591C195.156 77.1591 194.521 76.9967 193.987 76.6719C193.457 76.3438 193.048 75.8864 192.759 75.2997C192.474 74.7098 192.332 74.0237 192.332 73.2415C192.332 72.4593 192.474 71.7699 192.759 71.1733C193.048 70.5734 193.449 70.1061 193.963 69.7713C194.48 69.4332 195.083 69.2642 195.772 69.2642C196.17 69.2642 196.563 69.3305 196.951 69.4631C197.338 69.5956 197.691 69.8111 198.009 70.1094C198.328 70.4044 198.581 70.7955 198.77 71.2827C198.959 71.7699 199.054 72.3698 199.054 73.0824V73.5795H193.167V72.5653H197.86C197.86 72.1345 197.774 71.75 197.602 71.4119C197.433 71.0739 197.191 70.8071 196.876 70.6115C196.564 70.416 196.197 70.3182 195.772 70.3182C195.305 70.3182 194.901 70.4342 194.559 70.6662C194.221 70.8949 193.961 71.1932 193.779 71.5611C193.596 71.929 193.505 72.3234 193.505 72.7443V73.4205C193.505 73.9972 193.605 74.486 193.804 74.8871C194.006 75.2848 194.286 75.5881 194.644 75.7969C195.002 76.0024 195.418 76.1051 195.892 76.1051C196.2 76.1051 196.478 76.062 196.727 75.9759C196.979 75.8864 197.196 75.7538 197.378 75.5781C197.56 75.3991 197.701 75.1771 197.801 74.9119L198.934 75.2301C198.815 75.6146 198.614 75.9527 198.333 76.2443C198.051 76.5327 197.703 76.758 197.289 76.9205C196.874 77.0795 196.409 77.1591 195.892 77.1591Z" fill="#E1E1E1"/>
<path d="M113.392 37.8068V33.2784H114.17C114.432 33.0701 114.676 32.7765 114.903 32.3977C115.131 32.0189 115.324 31.5 115.483 30.8409C115.642 30.1818 115.752 29.3295 115.812 28.2841L116.119 23.3636H123.557V33.2784H124.852V37.7955H122.83V35H115.415V37.8068H113.392ZM116.625 33.2784H121.534V25.1307H118.017L117.835 28.2841C117.786 29.0758 117.706 29.7841 117.597 30.4091C117.487 31.0341 117.348 31.5852 117.182 32.0625C117.015 32.536 116.83 32.9413 116.625 33.2784ZM130.686 35.1705C129.833 35.1705 129.095 34.983 128.47 34.608C127.845 34.233 127.36 33.7083 127.015 33.0341C126.674 32.3598 126.504 31.572 126.504 30.6705C126.504 29.7689 126.674 28.9792 127.015 28.3011C127.36 27.6231 127.845 27.0966 128.47 26.7216C129.095 26.3466 129.833 26.1591 130.686 26.1591C131.538 26.1591 132.276 26.3466 132.901 26.7216C133.526 27.0966 134.009 27.6231 134.35 28.3011C134.695 28.9792 134.867 29.7689 134.867 30.6705C134.867 31.572 134.695 32.3598 134.35 33.0341C134.009 33.7083 133.526 34.233 132.901 34.608C132.276 34.983 131.538 35.1705 130.686 35.1705ZM130.697 33.5227C131.159 33.5227 131.545 33.3958 131.856 33.142C132.167 32.8845 132.398 32.5398 132.549 32.108C132.704 31.6761 132.782 31.1951 132.782 30.6648C132.782 30.1307 132.704 29.6477 132.549 29.2159C132.398 28.7803 132.167 28.4337 131.856 28.1761C131.545 27.9186 131.159 27.7898 130.697 27.7898C130.223 27.7898 129.829 27.9186 129.515 28.1761C129.204 28.4337 128.971 28.7803 128.816 29.2159C128.665 29.6477 128.589 30.1307 128.589 30.6648C128.589 31.1951 128.665 31.6761 128.816 32.108C128.971 32.5398 129.204 32.8845 129.515 33.142C129.829 33.3958 130.223 33.5227 130.697 33.5227ZM144.007 23.0455L144.723 24.375C144.47 24.5947 144.185 24.7538 143.871 24.8523C143.557 24.9508 143.187 25.0152 142.763 25.0455C142.343 25.072 141.843 25.0909 141.263 25.1023C140.612 25.1174 140.079 25.2405 139.666 25.4716C139.254 25.7027 138.937 26.053 138.718 26.5227C138.498 26.9886 138.354 27.5833 138.286 28.3068H138.382C138.655 27.7727 139.038 27.3655 139.53 27.0852C140.023 26.8049 140.6 26.6648 141.263 26.6648C141.987 26.6648 142.625 26.8277 143.178 27.1534C143.735 27.4754 144.168 27.9432 144.479 28.5568C144.793 29.1705 144.951 29.9129 144.951 30.7841C144.951 31.6818 144.782 32.4602 144.445 33.1193C144.108 33.7746 143.629 34.2803 143.007 34.6364C142.39 34.9924 141.657 35.1705 140.809 35.1705C139.964 35.1705 139.229 34.9867 138.604 34.6193C137.983 34.2481 137.502 33.7008 137.161 32.9773C136.824 32.25 136.655 31.3542 136.655 30.2898V29.5057C136.655 27.4527 137.038 25.9205 137.803 24.9091C138.568 23.8977 139.702 23.3826 141.206 23.3636C141.653 23.3561 142.053 23.3542 142.405 23.358C142.761 23.3617 143.072 23.3447 143.337 23.3068C143.602 23.2689 143.826 23.1818 144.007 23.0455ZM140.82 33.5227C141.24 33.5227 141.604 33.4148 141.911 33.1989C142.218 32.9792 142.452 32.6686 142.615 32.267C142.782 31.8655 142.865 31.3902 142.865 30.8409C142.865 30.2992 142.782 29.839 142.615 29.4602C142.449 29.0777 142.212 28.786 141.905 28.5852C141.598 28.3845 141.233 28.2841 140.809 28.2841C140.49 28.2841 140.204 28.3409 139.951 28.4545C139.697 28.5682 139.481 28.7348 139.303 28.9545C139.125 29.1742 138.988 29.4413 138.894 29.7557C138.799 30.0701 138.748 30.4318 138.74 30.8409C138.74 31.6629 138.926 32.3163 139.297 32.8011C139.668 33.2822 140.176 33.5227 140.82 33.5227ZM149.612 35.1761C149.059 35.1761 148.561 35.0777 148.118 34.8807C147.678 34.6799 147.33 34.3845 147.072 33.9943C146.818 33.6042 146.691 33.1231 146.691 32.5511C146.691 32.0587 146.782 31.6515 146.964 31.3295C147.146 31.0076 147.394 30.75 147.709 30.5568C148.023 30.3636 148.377 30.2178 148.771 30.1193C149.169 30.017 149.58 29.9432 150.004 29.8977C150.515 29.8447 150.93 29.7973 151.248 29.7557C151.566 29.7102 151.798 29.642 151.941 29.5511C152.089 29.4564 152.163 29.3106 152.163 29.1136V29.0795C152.163 28.6515 152.036 28.3201 151.782 28.0852C151.529 27.8504 151.163 27.733 150.686 27.733C150.182 27.733 149.782 27.8428 149.487 28.0625C149.195 28.2822 148.998 28.5417 148.896 28.8409L146.976 28.5682C147.127 28.0379 147.377 27.5947 147.726 27.2386C148.074 26.8788 148.5 26.6098 149.004 26.4318C149.508 26.25 150.065 26.1591 150.674 26.1591C151.095 26.1591 151.513 26.2083 151.93 26.3068C152.347 26.4053 152.727 26.5682 153.072 26.7955C153.417 27.0189 153.693 27.3239 153.902 27.7102C154.114 28.0966 154.22 28.5795 154.22 29.1591V35H152.243V33.8011H152.174C152.049 34.0436 151.873 34.2708 151.646 34.483C151.423 34.6913 151.14 34.8598 150.799 34.9886C150.462 35.1136 150.066 35.1761 149.612 35.1761ZM150.146 33.6648C150.559 33.6648 150.917 33.5833 151.22 33.4205C151.523 33.2538 151.756 33.0341 151.919 32.7614C152.085 32.4886 152.169 32.1913 152.169 31.8693V30.8409C152.104 30.8939 151.995 30.9432 151.839 30.9886C151.688 31.0341 151.517 31.0739 151.328 31.108C151.138 31.142 150.951 31.1723 150.765 31.1989C150.58 31.2254 150.419 31.2481 150.282 31.267C149.976 31.3087 149.701 31.3769 149.459 31.4716C149.216 31.5663 149.025 31.6989 148.885 31.8693C148.745 32.036 148.674 32.2519 148.674 32.517C148.674 32.8958 148.813 33.1818 149.089 33.375C149.366 33.5682 149.718 33.6648 150.146 33.6648ZM156.688 35V26.2727H160.353C161.387 26.2727 162.203 26.4792 162.802 26.892C163.404 27.3049 163.705 27.8807 163.705 28.6193C163.705 29.108 163.535 29.5076 163.194 29.8182C162.857 30.125 162.396 30.3314 161.813 30.4375C162.271 30.4754 162.673 30.5909 163.018 30.7841C163.366 30.9773 163.639 31.2311 163.836 31.5455C164.033 31.8598 164.131 32.2216 164.131 32.6307C164.131 33.1117 164.004 33.5303 163.751 33.8864C163.501 34.2386 163.135 34.5133 162.654 34.7102C162.177 34.9034 161.597 35 160.915 35H156.688ZM158.614 33.3807H160.915C161.294 33.3807 161.591 33.2917 161.807 33.1136C162.023 32.9318 162.131 32.6856 162.131 32.375C162.131 32.0152 162.023 31.733 161.807 31.5284C161.591 31.3201 161.294 31.2159 160.915 31.2159H158.614V33.3807ZM158.614 29.8864H160.393C160.673 29.8864 160.913 29.8466 161.114 29.767C161.315 29.6837 161.468 29.5682 161.574 29.4205C161.68 29.2689 161.734 29.089 161.734 28.8807C161.734 28.5814 161.61 28.3466 161.364 28.1761C161.122 28.0057 160.785 27.9205 160.353 27.9205H158.614V29.8864ZM167.621 29.1136H170.195C171.308 29.1136 172.17 29.3845 172.78 29.9261C173.39 30.4678 173.696 31.178 173.7 32.0568C173.696 32.6288 173.556 33.1364 173.28 33.5795C173.007 34.0227 172.609 34.3712 172.087 34.625C171.568 34.875 170.937 35 170.195 35H166.229V26.2727H168.212V33.3125H170.195C170.642 33.3125 171.009 33.1989 171.297 32.9716C171.585 32.7405 171.729 32.4451 171.729 32.0852C171.729 31.7064 171.585 31.3977 171.297 31.1591C171.009 30.9205 170.642 30.8011 170.195 30.8011H167.621V29.1136ZM174.48 27.9602V26.2727H182.116V27.9602H179.292V35H177.303V27.9602H174.48ZM187.658 35.1705C186.783 35.1705 186.027 34.9886 185.391 34.625C184.758 34.2576 184.272 33.7386 183.931 33.0682C183.59 32.3939 183.419 31.6004 183.419 30.6875C183.419 29.7898 183.59 29.0019 183.931 28.3239C184.275 27.642 184.756 27.1117 185.374 26.733C185.991 26.3504 186.717 26.1591 187.55 26.1591C188.088 26.1591 188.595 26.2462 189.073 26.4205C189.554 26.5909 189.978 26.8561 190.345 27.2159C190.717 27.5758 191.008 28.0341 191.22 28.5909C191.433 29.1439 191.539 29.803 191.539 30.5682V31.1989H184.385V29.8125H189.567C189.563 29.4186 189.478 29.0682 189.311 28.7614C189.145 28.4508 188.912 28.2064 188.613 28.0284C188.317 27.8504 187.972 27.7614 187.578 27.7614C187.158 27.7614 186.789 27.8636 186.47 28.0682C186.152 28.2689 185.904 28.5341 185.726 28.8636C185.552 29.1894 185.463 29.5473 185.459 29.9375V31.1477C185.459 31.6553 185.552 32.0909 185.738 32.4545C185.923 32.8144 186.183 33.0909 186.516 33.2841C186.849 33.4735 187.239 33.5682 187.686 33.5682C187.986 33.5682 188.256 33.5265 188.499 33.4432C188.741 33.3561 188.952 33.2292 189.13 33.0625C189.308 32.8958 189.442 32.6894 189.533 32.4432L191.453 32.6591C191.332 33.1667 191.101 33.6098 190.76 33.9886C190.423 34.3636 189.991 34.6553 189.465 34.8636C188.938 35.0682 188.336 35.1705 187.658 35.1705ZM197.837 27V25.8409C197.837 25.5076 197.9 25.161 198.025 24.8011C198.154 24.4375 198.328 24.0947 198.547 23.7727C198.771 23.447 199.021 23.1723 199.297 22.9489L200.252 23.5682C200.029 23.9053 199.841 24.2576 199.689 24.625C199.542 24.9886 199.47 25.3902 199.474 25.8295V27H197.837ZM200.718 27V25.8409C200.718 25.5076 200.78 25.161 200.905 24.8011C201.034 24.4375 201.208 24.0947 201.428 23.7727C201.652 23.447 201.902 23.1723 202.178 22.9489L203.133 23.5682C202.909 23.9053 202.722 24.2576 202.57 24.625C202.422 24.9886 202.35 25.3902 202.354 25.8295V27H200.718ZM205.07 23.3636H207.649L211.104 31.7955H211.24L214.695 23.3636H217.274V35H215.251V27.0057H215.143L211.928 34.9659H210.416L207.2 26.9886H207.092V35H205.07V23.3636ZM223.686 35.1705C222.833 35.1705 222.095 34.983 221.47 34.608C220.845 34.233 220.36 33.7083 220.015 33.0341C219.674 32.3598 219.504 31.572 219.504 30.6705C219.504 29.7689 219.674 28.9792 220.015 28.3011C220.36 27.6231 220.845 27.0966 221.47 26.7216C222.095 26.3466 222.833 26.1591 223.686 26.1591C224.538 26.1591 225.276 26.3466 225.901 26.7216C226.526 27.0966 227.009 27.6231 227.35 28.3011C227.695 28.9792 227.867 29.7689 227.867 30.6705C227.867 31.572 227.695 32.3598 227.35 33.0341C227.009 33.7083 226.526 34.233 225.901 34.608C225.276 34.983 224.538 35.1705 223.686 35.1705ZM223.697 33.5227C224.159 33.5227 224.545 33.3958 224.856 33.142C225.167 32.8845 225.398 32.5398 225.549 32.108C225.704 31.6761 225.782 31.1951 225.782 30.6648C225.782 30.1307 225.704 29.6477 225.549 29.2159C225.398 28.7803 225.167 28.4337 224.856 28.1761C224.545 27.9186 224.159 27.7898 223.697 27.7898C223.223 27.7898 222.829 27.9186 222.515 28.1761C222.204 28.4337 221.971 28.7803 221.816 29.2159C221.665 29.6477 221.589 30.1307 221.589 30.6648C221.589 31.1951 221.665 31.6761 221.816 32.108C221.971 32.5398 222.204 32.8845 222.515 33.142C222.829 33.3958 223.223 33.5227 223.697 33.5227ZM231.996 32.2159L235.49 26.2727H237.604V35H235.615V29.0511L232.132 35H230.013V26.2727H231.996V32.2159ZM234.928 23.2727H236.468C236.468 23.9356 236.227 24.4735 235.746 24.8864C235.269 25.2955 234.621 25.5 233.803 25.5C232.992 25.5 232.346 25.2955 231.865 24.8864C231.388 24.4735 231.151 23.9356 231.155 23.2727H232.684C232.684 23.5455 232.767 23.7898 232.934 24.0057C233.104 24.2178 233.394 24.3239 233.803 24.3239C234.204 24.3239 234.49 24.2178 234.661 24.0057C234.835 23.7936 234.924 23.5492 234.928 23.2727ZM243.712 37.5341V33.3068H244.405C244.591 33.1629 244.746 32.9678 244.871 32.7216C244.996 32.4716 245.099 32.178 245.178 31.8409C245.261 31.5 245.33 31.1193 245.383 30.6989C245.436 30.2746 245.483 29.8182 245.525 29.3295L245.775 26.2727H252.082V33.3068H253.434V37.5341H251.445V35H245.735V37.5341H243.712ZM246.519 33.3068H250.116V27.9318H247.559L247.422 29.3295C247.347 30.2538 247.246 31.0455 247.121 31.7045C246.996 32.3636 246.796 32.8977 246.519 33.3068ZM259.176 35.1705C258.324 35.1705 257.585 34.983 256.96 34.608C256.335 34.233 255.85 33.7083 255.506 33.0341C255.165 32.3598 254.994 31.572 254.994 30.6705C254.994 29.7689 255.165 28.9792 255.506 28.3011C255.85 27.6231 256.335 27.0966 256.96 26.7216C257.585 26.3466 258.324 26.1591 259.176 26.1591C260.028 26.1591 260.767 26.3466 261.392 26.7216C262.017 27.0966 262.5 27.6231 262.841 28.3011C263.186 28.9792 263.358 29.7689 263.358 30.6705C263.358 31.572 263.186 32.3598 262.841 33.0341C262.5 33.7083 262.017 34.233 261.392 34.608C260.767 34.983 260.028 35.1705 259.176 35.1705ZM259.188 33.5227C259.65 33.5227 260.036 33.3958 260.347 33.142C260.657 32.8845 260.888 32.5398 261.04 32.108C261.195 31.6761 261.273 31.1951 261.273 30.6648C261.273 30.1307 261.195 29.6477 261.04 29.2159C260.888 28.7803 260.657 28.4337 260.347 28.1761C260.036 27.9186 259.65 27.7898 259.188 27.7898C258.714 27.7898 258.32 27.9186 258.006 28.1761C257.695 28.4337 257.462 28.7803 257.307 29.2159C257.155 29.6477 257.08 30.1307 257.08 30.6648C257.08 31.1951 257.155 31.6761 257.307 32.108C257.462 32.5398 257.695 32.8845 258.006 33.142C258.32 33.3958 258.714 33.5227 259.188 33.5227ZM270.526 32.608L273.117 26.2727H274.776L271.248 35H269.811L266.362 26.2727H268.004L270.526 32.608ZM267.487 26.2727V35H265.504V26.2727H267.487ZM273.651 35V26.2727H275.617V35H273.651ZM279.836 23.3636V24.5227C279.836 24.8561 279.771 25.2027 279.642 25.5625C279.517 25.9186 279.345 26.2595 279.125 26.5852C278.906 26.9072 278.656 27.1837 278.375 27.4148L277.421 26.7955C277.629 26.4811 277.811 26.142 277.966 25.7784C278.121 25.411 278.199 24.9962 278.199 24.5341V23.3636H279.836ZM282.705 23.3636V24.5227C282.705 24.8561 282.64 25.2027 282.512 25.5625C282.387 25.9186 282.214 26.2595 281.995 26.5852C281.775 26.9072 281.527 27.1837 281.25 27.4148L280.296 26.7955C280.5 26.4811 280.68 26.142 280.836 25.7784C280.991 25.411 281.068 24.9962 281.068 24.5341V23.3636H282.705Z" fill="white"/>
<rect x="24" y="20" width="65" height="63" rx="22" fill="#2DD1D3"/>
<path d="M48.5484 33L63.8679 33.1942L54.4651 53.0981L41.8679 53.0981L48.5484 33Z" fill="white"/>
<path d="M49.8608 69.7844L54.3679 52.5L61.8679 46.1014L71.8006 46.1014L49.8608 69.7844Z" fill="white"/>
<defs>
<filter id="filter0_d_90_30" x="0" y="0" width="366" height="131" filterUnits="userSpaceOnUse" color-interpolation-filters="sRGB">
<feFlood flood-opacity="0" result="BackgroundImageFix"/>
<feColorMatrix in="SourceAlpha" type="matrix" values="0 0 0 0 0 0 0 0 0 0 0 0 0 0 0 0 0 0 127 0" result="hardAlpha"/>
<feOffset dy="4"/>
<feGaussianBlur stdDeviation="1.5"/>
<feComposite in2="hardAlpha" operator="out"/>
<feColorMatrix type="matrix" values="0 0 0 0 0 0 0 0 0 0 0 0 0 0 0 0 0 0 0.25 0"/>
<feBlend mode="normal" in2="BackgroundImageFix" result="effect1_dropShadow_90_30"/>
<feBlend mode="normal" in="SourceGraphic" in2="effect1_dropShadow_90_30" result="shape"/>
</filter>
</defs>
</svg>
